<?xml version="1.0" encoding="UTF-8" standalone="no"?>
<!-- Created with Inkscape (http://www.inkscape.org/) -->

<svg
   width="272.28763"
   height="207.79369"
   viewBox="0 0 72.042765 54.978743"
   version="1.1"
   id="svg1"
   xmlns="http://www.w3.org/2000/svg"
   xmlns:svg="http://www.w3.org/2000/svg">
  <defs
     id="defs1" />
  <g
     id="layer1"
     style="display:none"
     transform="translate(-30.237758,-1.620607)">
    <path
       style="display:inline;fill:none;stroke:#00ff33;stroke-width:1.127;stroke-linejoin:round;stroke-dasharray:none;stroke-opacity:1"
       d="M 66.401235,10.457991 H 18.979222 m -1.857717,110.638999 49.407493,0.467"
       id="rect1-7-8-6-2-4-1" />
    <g
       id="g5-1-6-1-2-4"
       transform="matrix(0,-0.26361496,-0.26361496,0,119.64574,591.70683)"
       style="display:inline;stroke:#00ff33;stroke-opacity:1">
      <path
         style="fill:none;stroke:#00ff33;stroke-width:4;stroke-linejoin:round;stroke-dasharray:none;stroke-opacity:1"
         d="M 2205.524,203.18427 2164.1998,161.4161"
         id="path5-5-8-0-6-7-3" />
      <path
         style="display:inline;fill:none;fill-opacity:1;stroke:#00ff33;stroke-width:3.96836;stroke-dasharray:none;stroke-opacity:1"
         d="m 1312.3902,103.59114 c -1.1614,0.96391 -2.3402,1.90692 -3.5356,2.82843 -5.9654,4.59871 -12.3495,8.66298 -19.0918,12.02082 -5.4988,2.73853 -11.2278,5.00469 -16.6598,7.87328 -5.4321,2.86858 -10.6316,6.4088 -14.4529,11.2186 -4.2033,5.29068 -6.5527,11.97794 -6.8406,18.72895 -0.288,6.75101 1.4501,13.5411 4.7192,19.45481 4.5503,8.23136 11.8153,14.56555 17.6777,21.92031 2.122,2.66215 4.0697,5.47351 5.6569,8.48529 1.1341,2.15205 2.0816,4.40239 2.8284,6.71751 0.047,-2.03082 0.2943,-4.05699 0.7383,-6.03922 1.4325,-6.39485 4.872,-12.18557 8.9505,-17.31508 4.0785,-5.12952 8.8157,-9.68975 13.2922,-14.47591 4.0625,-4.34353 7.9438,-8.9192 10.8473,-14.10951 2.9036,-5.19031 4.8016,-11.05771 4.6557,-17.00319 -0.1893,-7.71444 -3.7298,-14.88552 -5.9571,-22.27386 -1.7615,-5.8433 -2.7162,-11.92923 -2.8284,-18.03123 z"
         id="path15-1-7-4-1-8-7-9"
         transform="matrix(-1.0325534,0.10186831,0.09614026,0.97449293,3508.8734,-74.528248)" />
    </g>
    <path
       style="fill:none;fill-opacity:0.491898;stroke:#00ff33;stroke-width:1.08471;stroke-linecap:square;stroke-linejoin:bevel;stroke-opacity:1;paint-order:stroke fill markers"
       d="m 77.893925,22.409218 0.09281,87.251522"
       id="path2-8" />
    <g
       id="g5-1-6-1-2-4-5"
       transform="matrix(0,-0.26361496,0.26361496,0,-34.419629,591.66597)"
       style="display:inline;stroke:#00ff33;stroke-opacity:1">
      <path
         style="fill:none;stroke:#00ff33;stroke-width:4;stroke-linejoin:round;stroke-dasharray:none;stroke-opacity:1"
         d="M 2205.524,203.18427 2164.1998,161.4161"
         id="path5-5-8-0-6-7-3-1" />
      <path
         style="display:inline;fill:none;fill-opacity:1;stroke:#00ff33;stroke-width:3.96836;stroke-dasharray:none;stroke-opacity:1"
         d="m 1312.3902,103.59114 c -1.1614,0.96391 -2.3402,1.90692 -3.5356,2.82843 -5.9654,4.59871 -12.3495,8.66298 -19.0918,12.02082 -5.4988,2.73853 -11.2278,5.00469 -16.6598,7.87328 -5.4321,2.86858 -10.6316,6.4088 -14.4529,11.2186 -4.2033,5.29068 -6.5527,11.97794 -6.8406,18.72895 -0.288,6.75101 1.4501,13.5411 4.7192,19.45481 4.5503,8.23136 11.8153,14.56555 17.6777,21.92031 2.122,2.66215 4.0697,5.47351 5.6569,8.48529 1.1341,2.15205 2.0816,4.40239 2.8284,6.71751 0.047,-2.03082 0.2943,-4.05699 0.7383,-6.03922 1.4325,-6.39485 4.872,-12.18557 8.9505,-17.31508 4.0785,-5.12952 8.8157,-9.68975 13.2922,-14.47591 4.0625,-4.34353 7.9438,-8.9192 10.8473,-14.10951 2.9036,-5.19031 4.8016,-11.05771 4.6557,-17.00319 -0.1893,-7.71444 -3.7298,-14.88552 -5.9571,-22.27386 -1.7615,-5.8433 -2.7162,-11.92923 -2.8284,-18.03123 z"
         id="path15-1-7-4-1-8-7-9-7"
         transform="matrix(-1.0325534,0.10186831,0.09614026,0.97449293,3508.8734,-74.528248)" />
    </g>
  </g>
  <g
     id="layer2"
     style="display:none"
     transform="translate(-30.237758,-1.620607)">
    <path
       id="path15-1-7-4-1-8-7-9-7-4"
       style="display:inline;fill:none;fill-opacity:1;stroke:#00eeff;stroke-width:1.05446;stroke-dasharray:none;stroke-opacity:1"
       d="M 77.11574,42.094274 C 76.824954,40.537746 76.760911,38.94647 76.926039,37.37969 v 0 c -0.346101,0.207454 -0.696254,0.408963 -1.050223,0.604402 -1.766414,0.975323 -3.629334,1.799535 -5.566828,2.430636 -1.580156,0.514703 -3.207649,0.900594 -4.773844,1.450878 -1.566222,0.550278 -3.090844,1.28049 -4.44729,2.604516 -3.287584,2.606802 -4.96495,6.429251 -4.606057,10.341897 v 0 c 0.576196,6.281684 6.135611,10.906894 12.417288,10.330698 C 75.180762,64.566522 79.805979,59.007112 79.229783,52.725429 79.101279,51.324482 78.742798,50.25339 78.232857,48.350262 77.592865,45.96178 77.483424,44.062369 77.11574,42.094274 Z" />
  </g>
  <g
     id="layer3"
     transform="translate(-30.237758,-1.620607)">
    <path
       style="display:inline;fill:none;stroke:#00eeff;stroke-width:1.127;stroke-linejoin:round;stroke-dasharray:none;stroke-opacity:1"
       d="M 90.050299,9.2550158 H 42.628286"
       id="rect1-7-8-6-2-4-1-6" />
    <g
       id="g5-1-6-1-2-4-50"
       transform="matrix(0,-0.26361496,-0.26361496,0,143.2948,590.50386)"
       style="display:inline;stroke:#00eeff;stroke-opacity:1">
      <path
         style="fill:none;stroke:#00eeff;stroke-width:4;stroke-linejoin:round;stroke-dasharray:none;stroke-opacity:1"
         d="M 2205.524,203.18427 2164.1998,161.4161"
         id="path5-5-8-0-6-7-3-9" />
      <path
         style="display:inline;fill:none;fill-opacity:1;stroke:#00eeff;stroke-width:3.96836;stroke-dasharray:none;stroke-opacity:1"
         d="m 1312.3902,103.59114 c -1.1614,0.96391 -2.3402,1.90692 -3.5356,2.82843 -5.9654,4.59871 -12.3495,8.66298 -19.0918,12.02082 -5.4988,2.73853 -11.2278,5.00469 -16.6598,7.87328 -5.4321,2.86858 -10.6316,6.4088 -14.4529,11.2186 -4.2033,5.29068 -6.5527,11.97794 -6.8406,18.72895 -0.288,6.75101 1.4501,13.5411 4.7192,19.45481 4.5503,8.23136 11.8153,14.56555 17.6777,21.92031 2.122,2.66215 4.0697,5.47351 5.6569,8.48529 1.1341,2.15205 2.0816,4.40239 2.8284,6.71751 0.047,-2.03082 0.2943,-4.05699 0.7383,-6.03922 1.4325,-6.39485 4.872,-12.18557 8.9505,-17.31508 4.0785,-5.12952 8.8157,-9.68975 13.2922,-14.47591 4.0625,-4.34353 7.9438,-8.9192 10.8473,-14.10951 2.9036,-5.19031 4.8016,-11.05771 4.6557,-17.00319 -0.1893,-7.71444 -3.7298,-14.88552 -5.9571,-22.27386 -1.7615,-5.8433 -2.7162,-11.92923 -2.8284,-18.03123 z"
         id="path15-1-7-4-1-8-7-9-0"
         transform="matrix(-1.0325534,0.10186831,0.09614026,0.97449293,3508.8734,-74.528248)" />
    </g>
    <path
       style="display:inline;fill:none;fill-opacity:0.491898;stroke:#00eeff;stroke-width:1.08471;stroke-linecap:square;stroke-linejoin:bevel;stroke-opacity:1;paint-order:stroke fill markers"
       d="M 101.54299,21.206243 77.180761,34.746099"
       id="path2-8-3" />
    <g
       id="g5-1-6-1-2-4-5-8"
       transform="matrix(0,-0.26361496,0.26361496,0,-10.770565,590.463)"
       style="display:inline;stroke:#00eeff;stroke-opacity:1">
      <path
         style="fill:none;stroke:#00eeff;stroke-width:4;stroke-linejoin:round;stroke-dasharray:none;stroke-opacity:1"
         d="M 2205.524,203.18427 2164.1998,161.4161"
         id="path5-5-8-0-6-7-3-1-9" />
      <path
         style="display:inline;fill:none;fill-opacity:1;stroke:#00eeff;stroke-width:3.96836;stroke-dasharray:none;stroke-opacity:1"
         d="m 1312.3902,103.59114 c -1.1614,0.96391 -2.3402,1.90692 -3.5356,2.82843 -5.9654,4.59871 -12.3495,8.66298 -19.0918,12.02082 -5.4988,2.73853 -11.2278,5.00469 -16.6598,7.87328 -5.4321,2.86858 -10.6316,6.4088 -14.4529,11.2186 -4.2033,5.29068 -6.5527,11.97794 -6.8406,18.72895 -0.288,6.75101 1.4501,13.5411 4.7192,19.45481 4.5503,8.23136 11.8153,14.56555 17.6777,21.92031 2.122,2.66215 4.0697,5.47351 5.6569,8.48529 1.1341,2.15205 2.0816,4.40239 2.8284,6.71751 0.047,-2.03082 0.2943,-4.05699 0.7383,-6.03922 1.4325,-6.39485 4.872,-12.18557 8.9505,-17.31508 4.0785,-5.12952 8.8157,-9.68975 13.2922,-14.47591 4.0625,-4.34353 7.9438,-8.9192 10.8473,-14.10951 2.9036,-5.19031 4.8016,-11.05771 4.6557,-17.00319 -0.1893,-7.71444 -3.7298,-14.88552 -5.9571,-22.27386 -1.7615,-5.8433 -2.7162,-11.92923 -2.8284,-18.03123 z"
         id="path15-1-7-4-1-8-7-9-7-3"
         transform="matrix(-1.0325534,0.10186831,0.09614026,0.97449293,3508.8734,-74.528248)" />
    </g>
    <path
       style="display:inline;fill:none;fill-opacity:0.491898;stroke:#00eeff;stroke-width:1.08471;stroke-linecap:square;stroke-linejoin:bevel;stroke-opacity:1;paint-order:stroke fill markers"
       d="M 30.981249,21.165372 55.343468,35.674138"
       id="path2-8-2-0" />
    <g
       id="g6-4-8-8-7-6"
       transform="matrix(0,-0.14831543,0.14831543,0,-0.15299313,348.37641)"
       style="display:inline;stroke:#00eeff;stroke-width:3.96855;stroke-dasharray:none;stroke-opacity:1">
      <circle
         style="display:inline;fill:none;fill-opacity:1;stroke:#00eeff;stroke-width:8.0454;stroke-dasharray:none;stroke-opacity:1"
         id="path1-7-8-8-9-6-7-6"
         cx="2113.1873"
         cy="-445.76801"
         r="77.009796"
         transform="scale(1,-1)" />
      <circle
         style="display:inline;fill:#00eeff;fill-opacity:1;stroke:#00eeff;stroke-width:3.96855;stroke-dasharray:none;stroke-opacity:1"
         id="path16-1-4-6-2-0-8-18"
         cx="-2112.9146"
         cy="-373.625"
         transform="scale(-1)"
         r="26.66765" />
      <circle
         style="display:inline;fill:#00eeff;fill-opacity:1;stroke:#00eeff;stroke-width:3.96855;stroke-dasharray:none;stroke-opacity:1"
         id="path16-1-4-5-5-7-2-3-4"
         cx="-2114.8337"
         cy="-516.86224"
         transform="scale(-1)"
         r="26.66765" />
    </g>
    <path
       style="fill:none;fill-opacity:1;stroke:#00eeff;stroke-width:1;stroke-linecap:square;stroke-dasharray:none;stroke-opacity:1;paint-order:stroke fill markers"
       d="m 32.267107,30.306122 c 0,0 13.031714,18.533535 22.283912,24.601439 2.386029,1.564838 18.925605,1.672338 21.7491,-0.178267 C 85.912758,48.428876 99.29712,29.147361 99.29712,29.147361"
       id="path3" />
  </g>
</svg>
