<?xml version="1.0" encoding="UTF-8" standalone="no"?>
<!-- Created with Inkscape (http://www.inkscape.org/) -->

<svg
   width="271.67401"
   height="477.53925"
   viewBox="0 0 71.880412 126.34892"
   version="1.1"
   id="svg1"
   xmlns="http://www.w3.org/2000/svg"
   xmlns:svg="http://www.w3.org/2000/svg">
  <defs
     id="defs1" />
  <g
     id="layer1"
     transform="translate(-6.6728505,-2.8235771)">
    <path
       style="display:inline;fill:none;stroke:#148569;stroke-width:1.127;stroke-linejoin:round;stroke-dasharray:none;stroke-opacity:1"
       d="M 66.401235,10.457991 H 18.979222 m -1.857717,110.638999 49.407493,0.467"
       id="rect1-7-8-6-2-4-1" />
    <g
       id="g5-1-6-1-2-4"
       transform="matrix(0,-0.26361496,-0.26361496,0,119.64574,591.70683)"
       style="display:inline;stroke:#148569;stroke-opacity:1">
      <path
         style="fill:none;stroke:#148569;stroke-width:4;stroke-linejoin:round;stroke-dasharray:none;stroke-opacity:1"
         d="M 2205.524,203.18427 2164.1998,161.4161"
         id="path5-5-8-0-6-7-3" />
      <path
         style="display:inline;fill:none;fill-opacity:1;stroke:#148569;stroke-width:3.96836;stroke-dasharray:none;stroke-opacity:1"
         d="m 1312.3902,103.59114 c -1.1614,0.96391 -2.3402,1.90692 -3.5356,2.82843 -5.9654,4.59871 -12.3495,8.66298 -19.0918,12.02082 -5.4988,2.73853 -11.2278,5.00469 -16.6598,7.87328 -5.4321,2.86858 -10.6316,6.4088 -14.4529,11.2186 -4.2033,5.29068 -6.5527,11.97794 -6.8406,18.72895 -0.288,6.75101 1.4501,13.5411 4.7192,19.45481 4.5503,8.23136 11.8153,14.56555 17.6777,21.92031 2.122,2.66215 4.0697,5.47351 5.6569,8.48529 1.1341,2.15205 2.0816,4.40239 2.8284,6.71751 0.047,-2.03082 0.2943,-4.05699 0.7383,-6.03922 1.4325,-6.39485 4.872,-12.18557 8.9505,-17.31508 4.0785,-5.12952 8.8157,-9.68975 13.2922,-14.47591 4.0625,-4.34353 7.9438,-8.9192 10.8473,-14.10951 2.9036,-5.19031 4.8016,-11.05771 4.6557,-17.00319 -0.1893,-7.71444 -3.7298,-14.88552 -5.9571,-22.27386 -1.7615,-5.8433 -2.7162,-11.92923 -2.8284,-18.03123 z"
         id="path15-1-7-4-1-8-7-9"
         transform="matrix(-1.0325534,0.10186831,0.09614026,0.97449293,3508.8734,-74.528248)" />
    </g>
    <g
       id="g5-1-6-7-5-9-8"
       transform="matrix(0,0.26361496,-0.26361496,0,119.74313,-459.66989)"
       style="display:inline;stroke:#148569;stroke-opacity:1">
      <path
         style="fill:none;stroke:#148569;stroke-width:4;stroke-linejoin:round;stroke-dasharray:none;stroke-opacity:1"
         d="M 2205.524,203.18427 2164.1998,161.4161"
         id="path5-5-8-0-5-7-3-8" />
      <path
         style="display:inline;fill:none;fill-opacity:1;stroke:#148569;stroke-width:3.96836;stroke-dasharray:none;stroke-opacity:1"
         d="m 1312.3902,103.59114 c -1.1614,0.96391 -2.3402,1.90692 -3.5356,2.82843 -5.9654,4.59871 -12.3495,8.66298 -19.0918,12.02082 -5.4988,2.73853 -11.2278,5.00469 -16.6598,7.87328 -5.4321,2.86858 -10.6316,6.4088 -14.4529,11.2186 -4.2033,5.29068 -6.5527,11.97794 -6.8406,18.72895 -0.288,6.75101 1.4501,13.5411 4.7192,19.45481 4.5503,8.23136 11.8153,14.56555 17.6777,21.92031 2.122,2.66215 4.0697,5.47351 5.6569,8.48529 1.1341,2.15205 2.0816,4.40239 2.8284,6.71751 0.047,-2.03082 0.2943,-4.05699 0.7383,-6.03922 1.4325,-6.39485 4.872,-12.18557 8.9505,-17.31508 4.0785,-5.12952 8.8157,-9.68975 13.2922,-14.47591 4.0625,-4.34353 7.9438,-8.9192 10.8473,-14.10951 2.9036,-5.19031 4.8016,-11.05771 4.6557,-17.00319 -0.1893,-7.71444 -3.7298,-14.88552 -5.9571,-22.27386 -1.7615,-5.8433 -2.7162,-11.92923 -2.8284,-18.03123 z"
         id="path15-1-7-4-1-4-6-1-0"
         transform="matrix(-1.0325534,0.10186831,0.09614026,0.97449293,3508.8734,-74.528248)" />
    </g>
    <path
       style="fill:none;fill-opacity:0.491898;stroke:#148569;stroke-width:1.08471;stroke-linecap:square;stroke-linejoin:bevel;stroke-opacity:1;paint-order:stroke fill markers"
       d="m 77.893925,22.409218 0.09281,87.251522"
       id="path2-8" />
    <g
       id="g5-1-6-1-2-4-5"
       transform="matrix(0,-0.26361496,0.26361496,0,-34.419629,591.66597)"
       style="display:inline;stroke:#148569;stroke-opacity:1">
      <path
         style="fill:none;stroke:#148569;stroke-width:4;stroke-linejoin:round;stroke-dasharray:none;stroke-opacity:1"
         d="M 2205.524,203.18427 2164.1998,161.4161"
         id="path5-5-8-0-6-7-3-1" />
      <path
         style="display:inline;fill:none;fill-opacity:1;stroke:#148569;stroke-width:3.96836;stroke-dasharray:none;stroke-opacity:1"
         d="m 1312.3902,103.59114 c -1.1614,0.96391 -2.3402,1.90692 -3.5356,2.82843 -5.9654,4.59871 -12.3495,8.66298 -19.0918,12.02082 -5.4988,2.73853 -11.2278,5.00469 -16.6598,7.87328 -5.4321,2.86858 -10.6316,6.4088 -14.4529,11.2186 -4.2033,5.29068 -6.5527,11.97794 -6.8406,18.72895 -0.288,6.75101 1.4501,13.5411 4.7192,19.45481 4.5503,8.23136 11.8153,14.56555 17.6777,21.92031 2.122,2.66215 4.0697,5.47351 5.6569,8.48529 1.1341,2.15205 2.0816,4.40239 2.8284,6.71751 0.047,-2.03082 0.2943,-4.05699 0.7383,-6.03922 1.4325,-6.39485 4.872,-12.18557 8.9505,-17.31508 4.0785,-5.12952 8.8157,-9.68975 13.2922,-14.47591 4.0625,-4.34353 7.9438,-8.9192 10.8473,-14.10951 2.9036,-5.19031 4.8016,-11.05771 4.6557,-17.00319 -0.1893,-7.71444 -3.7298,-14.88552 -5.9571,-22.27386 -1.7615,-5.8433 -2.7162,-11.92923 -2.8284,-18.03123 z"
         id="path15-1-7-4-1-8-7-9-7"
         transform="matrix(-1.0325534,0.10186831,0.09614026,0.97449293,3508.8734,-74.528248)" />
    </g>
    <g
       id="g5-1-6-7-5-9-8-1"
       transform="matrix(0,0.26361496,0.26361496,0,-34.517018,-459.71076)"
       style="display:inline;stroke:#148569;stroke-opacity:1">
      <path
         style="fill:none;stroke:#148569;stroke-width:4;stroke-linejoin:round;stroke-dasharray:none;stroke-opacity:1"
         d="M 2203.7229,197.24054 2164.1998,161.4161"
         id="path5-5-8-0-5-7-3-8-1" />
      <path
         style="display:inline;fill:none;fill-opacity:1;stroke:#148569;stroke-width:3.96836;stroke-dasharray:none;stroke-opacity:1"
         d="m 1312.3902,103.59114 c -1.1614,0.96391 -2.3402,1.90692 -3.5356,2.82843 -5.9654,4.59871 -12.3495,8.66298 -19.0918,12.02082 -5.4988,2.73853 -11.2278,5.00469 -16.6598,7.87328 -5.4321,2.86858 -10.6316,6.4088 -14.4529,11.2186 -4.2033,5.29068 -6.5527,11.97794 -6.8406,18.72895 -0.288,6.75101 1.4501,13.5411 4.7192,19.45481 4.5503,8.23136 11.8153,14.56555 17.6777,21.92031 2.122,2.66215 4.0697,5.47351 5.6569,8.48529 1.1341,2.15205 2.0816,4.40239 2.8284,6.71751 0.047,-2.03082 0.2943,-4.05699 0.7383,-6.03922 1.4325,-6.39485 4.872,-12.18557 8.9505,-17.31508 4.0785,-5.12952 8.8157,-9.68975 13.2922,-14.47591 4.0625,-4.34353 7.9438,-8.9192 10.8473,-14.10951 2.9036,-5.19031 4.8016,-11.05771 4.6557,-17.00319 -0.1893,-7.71444 -3.7298,-14.88552 -5.9571,-22.27386 -1.7615,-5.8433 -2.7162,-11.92923 -2.8284,-18.03123 z"
         id="path15-1-7-4-1-4-6-1-0-5"
         transform="matrix(-1.0325534,0.10186831,0.09614026,0.97449293,3508.8734,-74.528248)" />
    </g>
    <path
       style="fill:none;fill-opacity:0.491898;stroke:#148569;stroke-width:1.08471;stroke-linecap:square;stroke-linejoin:bevel;stroke-opacity:1;paint-order:stroke fill markers"
       d="M 7.3321851,22.368347 7.2393762,109.61987"
       id="path2-8-2" />
    <g
       id="g6-4-8-8-7"
       transform="matrix(0,-0.14831543,0.14831543,0,-24.054171,415.12894)"
       style="display:inline;stroke:#148569;stroke-width:3.96855;stroke-dasharray:none;stroke-opacity:1">
      <circle
         style="display:inline;fill:none;fill-opacity:1;stroke:#148569;stroke-width:8.0454;stroke-dasharray:none;stroke-opacity:1"
         id="path1-7-8-8-9-6-7"
         cx="2113.1873"
         cy="-445.76801"
         r="77.009796"
         transform="scale(1,-1)" />
      <circle
         style="display:inline;fill:#148569;fill-opacity:1;stroke:#148569;stroke-width:3.96855;stroke-dasharray:none;stroke-opacity:1"
         id="path16-1-4-6-2-0-8"
         cx="-2112.9146"
         cy="-373.625"
         transform="scale(-1)"
         r="26.66765" />
      <circle
         style="display:inline;fill:#148569;fill-opacity:1;stroke:#148569;stroke-width:3.96855;stroke-dasharray:none;stroke-opacity:1"
         id="path16-1-4-5-5-7-2-3"
         cx="-2114.8337"
         cy="-516.86224"
         transform="scale(-1)"
         r="26.66765" />
    </g>
  </g>
</svg>
